<?xml version="1.0" encoding="utf-8"?>
<!-- Generator: Adobe Illustrator 16.0.3, SVG Export Plug-In . SVG Version: 6.00 Build 0)  -->
<!DOCTYPE svg PUBLIC "-//W3C//DTD SVG 1.1//EN" "http://www.w3.org/Graphics/SVG/1.1/DTD/svg11.dtd">
<svg version="1.1" id="Ebene_1" xmlns="http://www.w3.org/2000/svg" xmlns:xlink="http://www.w3.org/1999/xlink" x="0px" y="0px"
	 width="50px" height="50px" viewBox="0 0 50 50" enable-background="new 0 0 50 50" xml:space="preserve">
<g>
	<path fill="#414549" d="M24.975,45c-1.816,0-3.57-0.24-5.258-0.721c-1.688-0.48-3.273-1.161-4.756-2.04
		c-1.482-0.879-2.833-1.928-4.053-3.146c-1.219-1.221-2.268-2.571-3.147-4.054c-0.879-1.481-1.559-3.07-2.039-4.764
		C5.24,28.581,5,26.825,5,25.009c0-1.817,0.24-3.572,0.721-5.266c0.48-1.693,1.154-3.281,2.021-4.765
		c0.868-1.482,1.911-2.837,3.13-4.062c1.219-1.224,2.569-2.277,4.053-3.156c1.482-0.879,3.071-1.559,4.765-2.039
		C21.385,5.24,23.146,5,24.975,5c1.816,0,3.572,0.24,5.266,0.722c1.693,0.48,3.281,1.16,4.766,2.039
		c1.482,0.879,2.834,1.932,4.061,3.156c1.225,1.225,2.277,2.579,3.156,4.062c0.877,1.483,1.561,3.071,2.049,4.765
		C44.756,21.437,45,23.191,45,25.009c0,1.816-0.24,3.572-0.721,5.267c-0.48,1.693-1.158,3.282-2.031,4.764
		c-0.873,1.482-1.922,2.833-3.146,4.054c-1.225,1.219-2.578,2.268-4.061,3.146s-3.074,1.56-4.773,2.04
		C28.566,44.76,26.803,45,24.975,45z M33.906,28.086v-6.119l-6.594,6.437V14.389h-4.571v14.014l-6.594-6.437v6.119l8.844,8.475
		h0.071L33.906,28.086z"/>
</g>
</svg>
