<?xml version="1.0" encoding="utf-8"?>
<!-- Generator: Adobe Illustrator 16.0.0, SVG Export Plug-In . SVG Version: 6.00 Build 0)  -->
<!DOCTYPE svg PUBLIC "-//W3C//DTD SVG 1.1//EN" "http://www.w3.org/Graphics/SVG/1.1/DTD/svg11.dtd">
<svg version="1.1" id="Layer_1" xmlns="http://www.w3.org/2000/svg" xmlns:xlink="http://www.w3.org/1999/xlink" x="0px" y="0px"
	 width="278.858px" height="45.941px" viewBox="0 0 278.858 45.941" enable-background="new 0 0 278.858 45.941"
	 xml:space="preserve">
<g id="IEEE_Master_Brand_and_tagline">
	<polygon fill="#006EAB" points="45.658,40.108 45.658,6.815 53.851,6.815 53.851,40.108 	"/>
	<polygon fill="#006EAB" points="58.151,40.108 58.151,6.815 80.68,6.815 80.68,13.269 66.343,13.269 66.343,20.139 79.533,20.139 
		79.533,26.596 66.343,26.596 66.343,33.649 80.68,33.649 80.68,40.108 	"/>
	<polygon fill="#006EAB" points="85.269,40.108 85.269,6.815 107.794,6.815 107.794,13.269 93.46,13.269 93.46,20.139 
		106.646,20.139 106.646,26.596 93.46,26.596 93.46,33.649 107.794,33.649 107.794,40.108 	"/>
	<polygon fill="#006EAB" points="112.382,40.108 112.382,6.815 134.914,6.815 134.914,13.269 120.58,13.269 120.58,20.139 
		133.765,20.139 133.765,26.596 120.58,26.596 120.58,33.649 134.914,33.649 134.914,40.108 	"/>
	<rect x="1" y="1" fill="none" width="133.914" height="43.943"/>
	<path fill="#006EAB" d="M19.382,7.188c1.306-1.145,2.949-0.194,4.048,0.858c1.151,0.99,2.349,2.112,3.401,3.259l0.191,0.123
		c2.914,3.042,5.62,6.425,7.842,10c0.361,0.622,0.678,1.327,0.477,2.152c-0.741,2.086-2.248,3.75-3.565,5.569
		c-2.85,3.453-5.854,6.794-9.219,9.459c-0.681,0.541-1.599,1.042-2.415,0.612c-2.476-1.459-4.565-3.851-6.732-6.028
		c-2.514-2.624-5.038-5.679-6.942-8.874c-0.283-0.45-0.363-1.002-0.355-1.593c0.246-1.104,0.916-2.011,1.553-2.942
		c2.252-3.23,5.009-6.293,7.794-9.092c0.064-0.072,0.184-0.223,0.284-0.297C16.941,9.231,18.129,8.202,19.382,7.188L19.382,7.188z
		 M23.211,3.828l-1.478-2.359c-0.182-0.126-0.408-0.33-0.607-0.392c-0.436-0.212-0.906,0.045-1.263,0.349L17.187,5.35
		c-4.292,5.983-9.374,11.572-14.918,15.855c-0.439,0.387-1.09,0.762-1.226,1.397c-0.145,0.572,0.119,1.044,0.434,1.399
		c4.439,3.443,8.685,7.529,12.462,12.189c0.672,0.793,1.214,1.582,1.87,2.326c1.105,1.656,2.404,3.323,3.419,5.099
		c0.318,0.376,0.374,0.99,0.871,1.173c0.39,0.151,0.871,0.256,1.243,0l0.37-0.417c4.593-7.326,10.419-13.904,16.928-19.215
		c0.652-0.655,1.896-0.9,1.913-2.116c-0.046-0.561-0.336-1.113-0.764-1.419l-0.106-0.019c-3.35-2.565-6.471-5.466-9.411-8.756
		l-3.25-3.821C25.707,7.382,24.427,5.563,23.211,3.828L23.211,3.828z M19.862,8.089c1.336-1.024,2.534,0.407,3.568,1.225
		c4.002,3.625,7.776,7.774,10.653,12.458c0.363,0.605,0.526,1.544,0.202,2.229c-0.747,1.401-1.752,2.679-2.707,3.977v0.07
		c-2.379,2.849-4.89,5.78-7.604,8.193c-1.325,0.908-2.54,2.889-4.247,1.662c-3.885-3.196-7.603-7.169-10.755-11.432
		c-0.534-0.938-1.368-1.706-1.74-2.767c-0.519-1.439,0.625-2.472,1.28-3.556C11.726,15.689,15.715,11.314,19.862,8.089L19.862,8.089
		z M20.705,11.03l-0.362,1.308l-1.815,5.853c0.455,0.052,1.018,0,1.463,0.052v0.047l-0.266,6.621l0.046,0.071
		c0.581,0.063,1.305,0.096,1.897-0.018V24.86l-0.237-6.421l0.035-0.218l1.597-0.031c-0.796-2.369-1.57-4.762-2.313-7.161h-0.045
		V11.03z M14.528,20.201c-1.018,0.574-2.515,1.443-2.351,3.014c0.219,0.858,1.044,1.413,1.697,1.766
		c3.61,1.791,8.404,1.852,12.216,0.515c0.94-0.41,2.204-1.002,2.377-2.3c-0.01-1.072-1.018-1.747-1.744-2.158v-0.05
		c0.253-0.112,0.542-0.213,0.805-0.245v-0.029c-1.278-0.258-2.51-0.633-3.747-1c0.238,0.611,0.41,1.254,0.608,1.89
		c0.371-0.133,0.753-0.236,1.154-0.297c0.652,0.286,1.585,0.695,1.678,1.613c0.073,0.857-0.761,1.277-1.289,1.625
		c-2.796,1.146-5.942,1.256-8.859,0.387c-0.806-0.287-1.968-0.654-2.068-1.808c0.571-1.519,2.05-1.836,3.285-2.205
		c-0.634-0.461-1.28-0.868-1.896-1.379C15.734,19.579,15.127,19.907,14.528,20.201L14.528,20.201z M19.69,26.802
		c-0.108,2.35-0.135,4.527-0.289,6.884c0.826,0.084,1.759,0.165,2.641,0.021l-0.262-6.57l-0.048-0.313
		C21.061,26.854,20.425,26.884,19.69,26.802L19.69,26.802z"/>
	<g>
		<path fill="#006EAB" d="M27.398,40.248c-0.731,0-1.379,0.568-1.379,1.544c0,0.979,0.65,1.55,1.379,1.55
			c0.726,0,1.376-0.57,1.376-1.55C28.775,40.816,28.124,40.248,27.398,40.248z M27.398,42.986V42.98
			c-0.545,0.006-0.983-0.473-0.983-1.188c0-0.711,0.438-1.184,0.983-1.184c0.532,0,0.986,0.473,0.986,1.184
			C28.384,42.508,27.931,42.986,27.398,42.986z M28.014,41.463c0-0.382-0.224-0.502-0.607-0.502h-0.554v1.664h0.316v-0.7h0.151
			l0.34,0.7h0.377l-0.381-0.73C27.856,41.877,28.014,41.768,28.014,41.463z M27.453,41.643H27.17v-0.401h0.222
			c0.121,0,0.285,0.014,0.285,0.186C27.677,41.611,27.594,41.643,27.453,41.643z"/>
	</g>
	<g display="none" enable-background="new    ">
		<path display="inline" fill="none" stroke="#010202" stroke-miterlimit="10" d="M140.728,17.956l1.015-0.686
			c0.715,1.481,1.54,2.222,2.478,2.222c0.4,0,0.777-0.105,1.129-0.315c0.352-0.21,0.62-0.492,0.805-0.846
			c0.184-0.354,0.275-0.728,0.275-1.125c0-0.451-0.135-0.893-0.406-1.326c-0.373-0.597-1.056-1.316-2.047-2.158
			c-0.996-0.847-1.615-1.459-1.859-1.837c-0.422-0.634-0.634-1.32-0.634-2.057c0-0.585,0.124-1.119,0.374-1.6
			c0.248-0.481,0.6-0.861,1.052-1.138s0.943-0.416,1.474-0.416c0.563,0,1.09,0.157,1.58,0.471s1.009,0.892,1.556,1.732l-0.975,0.832
			c-0.45-0.67-0.833-1.112-1.149-1.326s-0.662-0.32-1.035-0.32c-0.482,0-0.877,0.165-1.182,0.494
			c-0.307,0.329-0.459,0.734-0.459,1.216c0,0.292,0.053,0.576,0.162,0.851c0.107,0.274,0.306,0.573,0.593,0.896
			c0.157,0.17,0.671,0.619,1.543,1.344c1.034,0.859,1.743,1.625,2.128,2.295s0.577,1.344,0.577,2.021
			c0,0.975-0.329,1.823-0.987,2.542c-0.658,0.719-1.457,1.079-2.4,1.079c-0.725,0-1.383-0.218-1.973-0.654
			C141.77,19.71,141.226,18.98,140.728,17.956z"/>
		<path display="inline" fill="none" stroke="#010202" stroke-miterlimit="10" d="M149.061,8.329V7.012h6.547v1.317h-2.665v12.132
			h-1.218V8.329H149.061z"/>
		<path display="inline" fill="none" stroke="#010202" stroke-miterlimit="10" d="M157.371,7.012h1.193v8.119
			c0,0.963,0.017,1.563,0.049,1.801c0.061,0.53,0.198,0.974,0.414,1.331c0.217,0.356,0.551,0.655,1,0.896s0.901,0.361,1.355,0.361
			c0.396,0,0.775-0.094,1.138-0.283s0.666-0.451,0.909-0.786c0.244-0.335,0.423-0.741,0.537-1.216
			c0.081-0.341,0.121-1.042,0.121-2.103V7.012h1.194v8.119c0,1.201-0.104,2.171-0.312,2.912c-0.208,0.741-0.626,1.385-1.251,1.934
			c-0.625,0.548-1.383,0.823-2.271,0.823c-0.964,0-1.79-0.259-2.478-0.777s-1.147-1.204-1.381-2.057
			c-0.146-0.524-0.219-1.469-0.219-2.834V7.012z"/>
		<path display="inline" fill="none" stroke="#010202" stroke-miterlimit="10" d="M168.222,20.461V7.012h2.477
			c1.787,0,3.084,0.162,3.891,0.485c1.159,0.457,2.064,1.25,2.718,2.377c0.652,1.128,0.979,2.472,0.979,4.032
			c0,1.347-0.259,2.532-0.776,3.556c-0.517,1.024-1.188,1.78-2.014,2.268c-0.826,0.488-1.983,0.731-3.473,0.731H168.222z
			 M169.367,19.19h1.381c1.652,0,2.797-0.116,3.437-0.347c0.898-0.329,1.604-0.921,2.12-1.776c0.514-0.856,0.771-1.902,0.771-3.138
			c0-1.297-0.279-2.405-0.837-3.325c-0.558-0.919-1.335-1.55-2.331-1.891c-0.747-0.256-1.979-0.384-3.695-0.384h-0.846V19.19z"/>
		<path display="inline" fill="none" stroke="#010202" stroke-miterlimit="10" d="M180.609,7.012h6.847v1.317h-5.653v4.215h5.605
			v1.316h-5.605v5.285h5.605v1.316h-6.799V7.012z"/>
		<path display="inline" fill="none" stroke="#010202" stroke-miterlimit="10" d="M189.527,20.461V7.012h0.26l7.952,10.31V7.012
			h1.178v13.449h-0.269l-7.887-10.184v10.184H189.527z"/>
		<path display="inline" fill="none" stroke="#010202" stroke-miterlimit="10" d="M200.638,8.329V7.012h6.547v1.317h-2.664v12.132
			h-1.219V8.329H200.638z"/>
		<path display="inline" fill="none" stroke="#010202" stroke-miterlimit="10" d="M213.544,7.012h2.355
			c0.948,0,1.676,0.127,2.186,0.379c0.509,0.253,0.911,0.642,1.206,1.166c0.296,0.524,0.442,1.106,0.442,1.746
			c0,0.598-0.129,1.142-0.388,1.632c-0.259,0.491-0.639,0.889-1.14,1.193c0.621,0.238,1.099,0.517,1.434,0.836
			c0.334,0.32,0.595,0.708,0.781,1.161c0.187,0.454,0.279,0.946,0.279,1.477c0,1.079-0.351,1.992-1.052,2.738
			c-0.701,0.747-1.642,1.12-2.822,1.12h-3.282V7.012z M214.714,8.329v4.306h0.684c0.83,0,1.441-0.087,1.832-0.261
			c0.391-0.173,0.699-0.448,0.928-0.823s0.342-0.791,0.342-1.248c0-0.615-0.191-1.099-0.574-1.449
			c-0.382-0.35-0.991-0.525-1.827-0.525H214.714z M214.714,13.988v5.157h1.48c0.874,0,1.514-0.096,1.921-0.288s0.733-0.492,0.98-0.9
			c0.247-0.409,0.37-0.851,0.37-1.326c0-0.597-0.174-1.118-0.521-1.563s-0.823-0.75-1.431-0.915
			c-0.407-0.11-1.115-0.165-2.125-0.165H214.714z"/>
		<path display="inline" fill="none" stroke="#010202" stroke-miterlimit="10" d="M223.13,7.012h2.379
			c1.327,0,2.227,0.062,2.697,0.183c0.709,0.184,1.285,0.575,1.73,1.176c0.443,0.602,0.666,1.341,0.666,2.22
			c0,0.732-0.154,1.376-0.459,1.932c-0.307,0.555-0.744,0.975-1.312,1.259s-1.354,0.429-2.355,0.435l4.297,6.245h-1.477L225,14.216
			h-0.676v6.245h-1.193V7.012z M224.324,8.329V12.9l2.059,0.019c0.797,0,1.387-0.085,1.77-0.256c0.382-0.17,0.68-0.443,0.895-0.818
			c0.215-0.375,0.321-0.794,0.321-1.257c0-0.451-0.108-0.861-0.325-1.23c-0.217-0.369-0.502-0.632-0.854-0.791
			c-0.353-0.159-0.938-0.238-1.757-0.238H224.324z"/>
		<path display="inline" fill="none" stroke="#010202" stroke-miterlimit="10" d="M238.042,7.012l5.572,13.449h-1.29l-1.879-4.425
			h-5.147l-1.861,4.425h-1.332l5.645-13.449H238.042z M237.892,9.869l-2.048,4.869h4.085L237.892,9.869z"/>
		<path display="inline" fill="none" stroke="#010202" stroke-miterlimit="10" d="M245.474,20.461V7.012h0.26l7.952,10.31V7.012
			h1.178v13.449h-0.269l-7.887-10.184v10.184H245.474z"/>
		<path display="inline" fill="none" stroke="#010202" stroke-miterlimit="10" d="M268.9,9.508l-0.942,0.814
			c-0.521-0.762-1.144-1.339-1.872-1.733C265.357,8.196,264.556,8,263.685,8c-0.953,0-1.836,0.257-2.648,0.772
			s-1.441,1.207-1.889,2.075c-0.446,0.869-0.67,1.846-0.67,2.93c0,1.64,0.5,3.008,1.499,4.105s2.259,1.646,3.78,1.646
			c1.674,0,3.074-0.737,4.2-2.212l0.942,0.805c-0.596,0.853-1.34,1.513-2.23,1.979s-1.885,0.7-2.984,0.7
			c-2.09,0-3.739-0.783-4.947-2.35c-1.012-1.323-1.519-2.92-1.519-4.791c0-1.969,0.613-3.625,1.84-4.969
			c1.227-1.344,2.763-2.016,4.609-2.016c1.116,0,2.123,0.248,3.022,0.745C267.589,7.916,268.326,8.612,268.9,9.508z"/>
		<path display="inline" fill="none" stroke="#010202" stroke-miterlimit="10" d="M271.279,7.012h1.195v5.641h6.083V7.012h1.194
			v13.449h-1.194V13.97h-6.083v6.491h-1.195V7.012z"/>
	</g>
	<path display="none" stroke="#010202" stroke-miterlimit="10" d="M142.026,25.646h2.379c1.327,0,2.228,0.061,2.697,0.183
		c0.709,0.183,1.284,0.575,1.729,1.176c0.443,0.602,0.666,1.341,0.666,2.22c0,0.732-0.151,1.376-0.459,1.931
		c-0.307,0.556-0.742,0.975-1.312,1.259s-1.354,0.429-2.354,0.436l4.297,6.245h-1.479l-4.297-6.245h-0.674v6.245h-1.194
		L142.026,25.646L142.026,25.646z M143.22,26.962v4.571l2.057,0.018c0.799,0,1.387-0.085,1.77-0.256
		c0.384-0.171,0.683-0.443,0.896-0.818c0.215-0.374,0.321-0.793,0.321-1.256c0-0.451-0.108-0.861-0.327-1.23
		c-0.215-0.369-0.501-0.632-0.854-0.791c-0.353-0.158-0.938-0.237-1.758-0.237L143.22,26.962L143.22,26.962z"/>
	<path display="none" stroke="#010202" stroke-miterlimit="10" d="M157.261,25.646h6.848v1.317h-5.652v4.215h5.604v1.316h-5.604
		v5.285h5.604v1.316h-6.799V25.646L157.261,25.646z"/>
	<path display="none" stroke="#010202" stroke-miterlimit="10" d="M181.857,27.904l-0.926,0.988
		c-0.667-0.737-1.396-1.297-2.189-1.679c-0.793-0.38-1.566-0.571-2.318-0.571c-0.937,0-1.827,0.26-2.676,0.777
		c-0.848,0.518-1.502,1.221-1.97,2.107c-0.468,0.887-0.698,1.825-0.698,2.812c0,1.012,0.239,1.974,0.723,2.884
		c0.482,0.912,1.146,1.628,1.998,2.148c0.851,0.521,1.781,0.782,2.794,0.782c1.231,0,2.271-0.39,3.118-1.17
		c0.851-0.781,1.355-1.792,1.512-3.036h-3.811v-1.298h5.15c-0.012,2.079-0.561,3.73-1.646,4.95
		c-1.084,1.223-2.537,1.833-4.356,1.833c-2.209,0-3.958-0.847-5.246-2.542c-0.991-1.303-1.487-2.812-1.487-4.525
		c0-1.274,0.285-2.46,0.854-3.557c0.568-1.097,1.35-1.954,2.34-2.574c0.99-0.618,2.111-0.928,3.361-0.928
		c1.014,0,1.967,0.207,2.859,0.617C180.132,26.335,181.005,26.996,181.857,27.904z"/>
	<path display="none" stroke="#010202" stroke-miterlimit="10" d="M187.964,25.646h6.848v1.317h-5.652v4.215h5.604v1.316h-5.604
		v5.285h5.604v1.316h-6.799V25.646z"/>
	<path display="none" stroke="#010202" stroke-miterlimit="10" d="M200.001,39.096v-13.45h0.261l7.95,10.31v-10.31h1.179v13.449
		h-0.271l-7.887-10.184v10.184L200.001,39.096L200.001,39.096z"/>
	<path display="none" stroke="#010202" stroke-miterlimit="10" d="M214.182,36.59l1.017-0.686c0.715,1.482,1.539,2.221,2.477,2.221
		c0.402,0,0.777-0.105,1.131-0.316c0.352-0.211,0.619-0.492,0.804-0.846c0.183-0.354,0.276-0.728,0.276-1.125
		c0-0.451-0.137-0.893-0.407-1.326c-0.373-0.597-1.056-1.317-2.047-2.159c-0.996-0.847-1.618-1.459-1.86-1.837
		c-0.421-0.634-0.633-1.319-0.633-2.058c0-0.585,0.125-1.118,0.373-1.6c0.249-0.481,0.602-0.86,1.053-1.139
		c0.452-0.277,0.942-0.416,1.475-0.416c0.562,0,1.089,0.157,1.58,0.47c0.49,0.315,1.008,0.892,1.555,1.733L220,28.338
		c-0.449-0.67-0.834-1.112-1.148-1.326c-0.316-0.213-0.662-0.319-1.035-0.319c-0.482,0-0.878,0.165-1.184,0.494
		c-0.307,0.329-0.457,0.735-0.457,1.216c0,0.293,0.054,0.576,0.162,0.851c0.106,0.275,0.306,0.574,0.593,0.896
		c0.155,0.171,0.672,0.619,1.542,1.343c1.035,0.859,1.742,1.625,2.128,2.295c0.385,0.671,0.578,1.344,0.578,2.021
		c0,0.975-0.329,1.823-0.986,2.542c-0.657,0.72-1.458,1.08-2.401,1.08c-0.727,0-1.385-0.219-1.973-0.654
		C215.226,38.343,214.68,37.614,214.182,36.59z"/>
	<path display="none" stroke="#010202" stroke-miterlimit="10" d="M226.853,25.646h2.355c0.947,0,1.676,0.126,2.186,0.379
		c0.508,0.253,0.912,0.641,1.206,1.165c0.295,0.525,0.442,1.106,0.442,1.747c0,0.598-0.129,1.142-0.389,1.632
		c-0.258,0.49-0.638,0.889-1.141,1.194c0.623,0.238,1.101,0.516,1.436,0.836c0.334,0.321,0.594,0.707,0.781,1.161
		c0.186,0.454,0.277,0.947,0.277,1.477c0,1.08-0.35,1.992-1.051,2.739s-1.642,1.12-2.824,1.12h-3.28L226.853,25.646L226.853,25.646z
		 M228.023,26.962v4.307h0.684c0.83,0,1.44-0.087,1.832-0.261c0.392-0.174,0.699-0.448,0.928-0.823s0.343-0.791,0.343-1.248
		c0-0.615-0.19-1.098-0.574-1.449c-0.383-0.35-0.991-0.525-1.827-0.525L228.023,26.962L228.023,26.962z M228.023,32.622v5.157h1.48
		c0.875,0,1.513-0.096,1.92-0.288c0.406-0.192,0.732-0.492,0.979-0.901c0.247-0.409,0.37-0.851,0.37-1.326
		c0-0.597-0.174-1.119-0.521-1.564c-0.346-0.444-0.822-0.75-1.431-0.914c-0.405-0.11-1.112-0.165-2.125-0.165L228.023,32.622
		L228.023,32.622z"/>
	<path display="none" stroke="#010202" stroke-miterlimit="10" d="M239.531,25.646h1.193v8.12c0,0.963,0.018,1.563,0.049,1.801
		c0.061,0.53,0.199,0.974,0.414,1.331c0.218,0.357,0.549,0.656,0.999,0.896c0.45,0.241,0.901,0.362,1.356,0.362
		c0.396,0,0.774-0.095,1.138-0.284c0.362-0.188,0.667-0.45,0.909-0.786c0.242-0.335,0.423-0.741,0.537-1.216
		c0.082-0.342,0.123-1.042,0.123-2.103v-8.119h1.191v8.119c0,1.201-0.104,2.171-0.312,2.912c-0.207,0.74-0.625,1.385-1.252,1.933
		c-0.623,0.547-1.381,0.823-2.27,0.823c-0.964,0-1.791-0.26-2.479-0.777c-0.688-0.517-1.146-1.203-1.381-2.058
		c-0.146-0.524-0.22-1.468-0.22-2.834L239.531,25.646L239.531,25.646z"/>
	<path display="none" stroke="#010202" stroke-miterlimit="10" d="M253.566,25.646h2.38c1.327,0,2.228,0.061,2.697,0.183
		c0.71,0.183,1.285,0.575,1.729,1.176c0.442,0.601,0.666,1.341,0.666,2.22c0,0.732-0.152,1.376-0.459,1.931
		c-0.306,0.555-0.742,0.975-1.312,1.259c-0.567,0.284-1.354,0.429-2.354,0.436l4.297,6.245h-1.479l-4.296-6.245h-0.676v6.245h-1.193
		V25.646L253.566,25.646z M254.761,26.962v4.571l2.058,0.018c0.798,0,1.386-0.085,1.769-0.256c0.385-0.171,0.682-0.443,0.896-0.818
		c0.212-0.374,0.319-0.793,0.319-1.256c0-0.451-0.107-0.861-0.325-1.23c-0.217-0.369-0.502-0.632-0.854-0.791
		c-0.354-0.158-0.938-0.237-1.758-0.237L254.761,26.962L254.761,26.962z"/>
	<path display="none" stroke="#010202" stroke-miterlimit="10" d="M278.244,27.904l-0.928,0.988
		c-0.666-0.737-1.396-1.297-2.188-1.679c-0.795-0.38-1.567-0.571-2.318-0.571c-0.938,0-1.829,0.26-2.678,0.777
		c-0.846,0.518-1.502,1.221-1.969,2.107c-0.467,0.887-0.699,1.825-0.699,2.812c0,1.012,0.24,1.974,0.724,2.884
		c0.481,0.912,1.146,1.628,1.998,2.148c0.851,0.521,1.78,0.782,2.794,0.782c1.23,0,2.27-0.39,3.119-1.17
		c0.85-0.781,1.354-1.792,1.511-3.036h-3.81v-1.298h5.148c-0.011,2.079-0.559,3.73-1.645,4.95c-1.086,1.223-2.539,1.833-4.357,1.833
		c-2.209,0-3.959-0.847-5.246-2.542c-0.992-1.303-1.486-2.812-1.486-4.525c0-1.274,0.283-2.46,0.853-3.557
		c0.569-1.097,1.349-1.954,2.341-2.574c0.99-0.618,2.11-0.928,3.361-0.928c1.012,0,1.965,0.207,2.857,0.617
		C276.52,26.335,277.392,26.996,278.244,27.904z"/>
</g>
<g enable-background="new    ">
	<path d="M141.238,18.593c0.493,0.32,1.252,0.639,2.034,0.639c0.843,0,1.288-0.441,1.288-1.11c0-0.639-0.385-1.004-1.36-1.445
		c-1.349-0.593-2.228-1.537-2.228-3.027c0-1.75,1.156-3.088,3.07-3.088c0.915,0,1.589,0.243,2.07,0.517l-0.409,1.872
		c-0.325-0.198-0.902-0.487-1.697-0.487s-1.18,0.457-1.18,0.989c0,0.654,0.457,0.943,1.505,1.445
		c1.433,0.669,2.106,1.612,2.106,3.058c0,1.719-1.047,3.18-3.274,3.18c-0.927,0-1.842-0.305-2.3-0.624L141.238,18.593z"/>
	<path d="M152.243,12.675h-2.179v-1.947h6.236v1.947h-2.216v8.306h-1.842V12.675z"/>
	<path d="M162.105,10.728v5.902c0,1.765,0.529,2.663,1.469,2.663c0.963,0,1.492-0.852,1.492-2.663v-5.902h1.83v5.75
		c0,3.164-1.264,4.67-3.383,4.67c-2.047,0-3.25-1.43-3.25-4.701v-5.72H162.105z"/>
	<path d="M171.485,10.865c0.675-0.137,1.554-0.213,2.48-0.213c1.541,0,2.54,0.35,3.323,1.095c0.843,0.791,1.372,2.054,1.372,3.864
		c0,1.962-0.565,3.316-1.349,4.153c-0.854,0.897-2.155,1.323-3.744,1.323c-0.951,0-1.625-0.076-2.083-0.152V10.865z M173.328,19.232
		c0.156,0.045,0.409,0.045,0.638,0.045c1.661,0.016,2.745-1.141,2.745-3.59c0.012-2.13-0.976-3.256-2.553-3.256
		c-0.409,0-0.674,0.046-0.83,0.091V19.232z"/>
	<path d="M187.692,16.646h-2.985v2.434h3.335v1.902h-5.177V10.728h5.008v1.901h-3.166v2.13h2.985V16.646z"/>
	<path d="M192.293,20.981V10.728h2.143l1.686,3.757c0.481,1.08,0.963,2.358,1.324,3.514h0.036c-0.12-1.354-0.156-2.738-0.156-4.275
		v-2.997h1.686v10.253h-1.927l-1.733-3.956c-0.481-1.095-1.011-2.418-1.408-3.621l-0.036,0.015c0.048,1.354,0.072,2.799,0.072,4.473
		v3.088H192.293z"/>
</g>
<g enable-background="new    ">
	<path d="M205.326,12.675h-2.18v-1.947h6.236v1.947h-2.215v8.306h-1.842V12.675z"/>
</g>
<g enable-background="new    ">
	<path d="M217.462,10.865c0.481-0.122,1.457-0.213,2.372-0.213c1.119,0,1.806,0.137,2.396,0.578c0.565,0.38,0.975,1.08,0.975,2.008
		c0,0.913-0.421,1.765-1.336,2.191v0.03c0.927,0.32,1.613,1.202,1.613,2.525c0,0.928-0.337,1.658-0.843,2.176
		c-0.59,0.593-1.577,0.928-3.19,0.928c-0.903,0-1.577-0.076-1.986-0.152V10.865z M219.28,14.79h0.603c0.963,0,1.48-0.502,1.48-1.263
		c0-0.776-0.47-1.187-1.3-1.187c-0.397,0-0.626,0.031-0.783,0.061V14.79z M219.28,19.338c0.181,0.03,0.397,0.03,0.711,0.03
		c0.83,0,1.564-0.396,1.564-1.476c0-1.034-0.734-1.445-1.648-1.445h-0.627V19.338z"/>
	<path d="M227.734,10.865c0.59-0.122,1.469-0.213,2.444-0.213c1.203,0,2.046,0.228,2.624,0.806c0.481,0.487,0.746,1.202,0.746,2.145
		c0,1.309-0.734,2.206-1.433,2.525v0.046c0.566,0.289,0.879,0.974,1.084,1.917c0.253,1.156,0.506,2.495,0.662,2.891h-1.878
		c-0.133-0.289-0.325-1.126-0.566-2.389c-0.217-1.278-0.565-1.627-1.312-1.643h-0.555v4.031h-1.817V10.865z M229.551,15.276h0.723
		c0.915,0,1.457-0.578,1.457-1.476c0-0.943-0.506-1.415-1.349-1.43c-0.445,0-0.698,0.045-0.831,0.076V15.276z"/>
	<path d="M239.871,18.35l-0.577,2.632h-1.902l2.479-10.253h2.408l2.517,10.253h-1.975l-0.626-2.632H239.871z M241.93,16.615
		l-0.506-2.175c-0.145-0.608-0.289-1.369-0.409-1.978h-0.024c-0.12,0.609-0.241,1.385-0.373,1.978l-0.481,2.175H241.93z"/>
	<path d="M248.878,20.981V10.728h2.143l1.686,3.757c0.481,1.08,0.964,2.358,1.324,3.514h0.036c-0.12-1.354-0.156-2.738-0.156-4.275
		v-2.997h1.686v10.253h-1.926l-1.734-3.956c-0.481-1.095-1.011-2.418-1.408-3.621l-0.036,0.015c0.048,1.354,0.072,2.799,0.072,4.473
		v3.088H248.878z"/>
	<path d="M266.144,20.692c-0.337,0.213-1.096,0.441-2.082,0.441c-2.806,0-4.25-2.206-4.25-5.127c0-3.499,1.975-5.446,4.43-5.446
		c0.951,0,1.674,0.243,1.999,0.457l-0.373,1.841c-0.373-0.198-0.891-0.38-1.541-0.38c-1.457,0-2.589,1.11-2.589,3.393
		c0,2.054,0.963,3.347,2.601,3.347c0.554,0,1.168-0.152,1.529-0.335L266.144,20.692z"/>
</g>
<g enable-background="new    ">
	<path d="M272.214,10.728v3.94h3.021v-3.94h1.83v10.253h-1.83v-4.29h-3.021v4.29h-1.842V10.728H272.214z"/>
</g>
<g enable-background="new    ">
	<path d="M141.177,26.839c0.59-0.122,1.469-0.213,2.444-0.213c1.203,0,2.046,0.228,2.624,0.806c0.481,0.487,0.746,1.202,0.746,2.145
		c0,1.309-0.734,2.206-1.433,2.525v0.046c0.566,0.289,0.879,0.974,1.084,1.917c0.253,1.156,0.506,2.495,0.662,2.891h-1.878
		c-0.133-0.289-0.325-1.126-0.566-2.389c-0.217-1.278-0.565-1.627-1.312-1.643h-0.555v4.031h-1.817V26.839z M142.995,31.251h0.723
		c0.915,0,1.457-0.578,1.457-1.476c0-0.943-0.506-1.415-1.349-1.43c-0.445,0-0.698,0.045-0.831,0.076V31.251z"/>
	<path d="M156.143,32.62h-2.985v2.434h3.335v1.902h-5.177V26.703h5.008v1.901h-3.166v2.13h2.985V32.62z"/>
	<path d="M167.523,36.484c-0.566,0.244-1.638,0.578-2.709,0.578c-1.481,0-2.553-0.472-3.299-1.384
		c-0.746-0.882-1.156-2.221-1.144-3.727c0.012-3.408,1.975-5.355,4.635-5.355c1.048,0,1.854,0.258,2.251,0.502l-0.385,1.856
		c-0.445-0.244-0.999-0.441-1.891-0.441c-1.528,0-2.685,1.096-2.685,3.316c0,2.115,1.048,3.362,2.553,3.362
		c0.421,0,0.758-0.061,0.902-0.152v-2.145H164.5v-1.81h3.022V36.484z"/>
	<path d="M176.783,32.62h-2.985v2.434h3.334v1.902h-5.177V26.703h5.009v1.901h-3.166v2.13h2.985V32.62z"/>
	<path d="M181.383,36.956V26.703h2.144l1.686,3.757c0.481,1.08,0.963,2.358,1.324,3.514h0.036c-0.12-1.354-0.156-2.738-0.156-4.275
		v-2.997h1.685v10.253h-1.926L184.442,33c-0.481-1.095-1.012-2.418-1.409-3.621l-0.036,0.015c0.049,1.354,0.072,2.799,0.072,4.473
		v3.088H181.383z"/>
	<path d="M192.75,34.567c0.493,0.32,1.252,0.639,2.034,0.639c0.843,0,1.289-0.441,1.289-1.11c0-0.639-0.386-1.004-1.36-1.445
		c-1.349-0.593-2.228-1.537-2.228-3.027c0-1.75,1.155-3.088,3.069-3.088c0.915,0,1.59,0.243,2.071,0.517l-0.409,1.872
		c-0.325-0.198-0.903-0.487-1.697-0.487c-0.795,0-1.181,0.457-1.181,0.989c0,0.654,0.458,0.943,1.505,1.445
		c1.433,0.669,2.107,1.612,2.107,3.058c0,1.719-1.048,3.18-3.274,3.18c-0.928,0-1.843-0.305-2.3-0.624L192.75,34.567z"/>
	<path d="M202.191,26.839c0.482-0.122,1.457-0.213,2.372-0.213c1.12,0,1.806,0.137,2.396,0.578c0.566,0.38,0.976,1.08,0.976,2.008
		c0,0.913-0.422,1.765-1.337,2.191v0.03c0.928,0.32,1.613,1.202,1.613,2.525c0,0.928-0.337,1.658-0.843,2.176
		c-0.59,0.593-1.576,0.928-3.189,0.928c-0.903,0-1.577-0.076-1.987-0.152V26.839z M204.009,30.764h0.602
		c0.964,0,1.481-0.502,1.481-1.263c0-0.776-0.47-1.187-1.301-1.187c-0.397,0-0.626,0.031-0.782,0.061V30.764z M204.009,35.313
		c0.181,0.03,0.397,0.03,0.71,0.03c0.831,0,1.565-0.396,1.565-1.476c0-1.034-0.734-1.445-1.649-1.445h-0.626V35.313z"/>
	<path d="M214.292,26.703v5.902c0,1.765,0.529,2.663,1.469,2.663c0.963,0,1.492-0.852,1.492-2.663v-5.902h1.83v5.75
		c0,3.164-1.264,4.67-3.383,4.67c-2.047,0-3.25-1.43-3.25-4.701v-5.72H214.292z"/>
	<path d="M223.673,26.839c0.59-0.122,1.469-0.213,2.444-0.213c1.203,0,2.046,0.228,2.624,0.806c0.481,0.487,0.746,1.202,0.746,2.145
		c0,1.309-0.734,2.206-1.433,2.525v0.046c0.566,0.289,0.879,0.974,1.084,1.917c0.253,1.156,0.506,2.495,0.662,2.891h-1.878
		c-0.133-0.289-0.325-1.126-0.566-2.389c-0.217-1.278-0.565-1.627-1.312-1.643h-0.555v4.031h-1.817V26.839z M225.491,31.251h0.723
		c0.915,0,1.457-0.578,1.457-1.476c0-0.943-0.506-1.415-1.349-1.43c-0.445,0-0.698,0.045-0.831,0.076V31.251z"/>
</g>
<g enable-background="new    ">
	<path d="M240.829,36.484c-0.565,0.244-1.638,0.578-2.709,0.578c-1.481,0-2.552-0.472-3.299-1.384
		c-0.746-0.882-1.155-2.221-1.144-3.727c0.012-3.408,1.975-5.355,4.635-5.355c1.048,0,1.854,0.258,2.252,0.502l-0.386,1.856
		c-0.445-0.244-0.999-0.441-1.89-0.441c-1.529,0-2.686,1.096-2.686,3.316c0,2.115,1.048,3.362,2.553,3.362
		c0.422,0,0.758-0.061,0.902-0.152v-2.145h-1.252v-1.81h3.022V36.484z"/>
</g>
<g enable-background="new    ">
	<path d="M254.195,32.62h-2.985v2.434h3.335v1.902h-5.178V26.703h5.009v1.901h-3.166v2.13h2.985V32.62z"/>
	<path d="M258.507,35.724c0-0.821,0.445-1.415,1.083-1.415s1.071,0.578,1.071,1.415c0,0.807-0.434,1.4-1.084,1.4
		C258.953,37.124,258.507,36.53,258.507,35.724z"/>
	<path d="M266.744,36.956l-2.602-10.253h2.012l0.986,4.335c0.277,1.217,0.529,2.389,0.723,3.667h0.036
		c0.204-1.232,0.458-2.449,0.734-3.621l1.035-4.381h1.95l-2.732,10.253H266.744z"/>
</g>
<g enable-background="new    ">
	<path d="M275.468,35.724c0-0.821,0.445-1.415,1.084-1.415c0.638,0,1.071,0.578,1.071,1.415c0,0.807-0.434,1.4-1.084,1.4
		C275.914,37.124,275.468,36.53,275.468,35.724z"/>
</g>
</svg>
